<?xml version="1.0" standalone="no"?>
<!DOCTYPE svg PUBLIC "-//W3C//DTD SVG 20010904//EN"
 "http://www.w3.org/TR/2001/REC-SVG-20010904/DTD/svg10.dtd">
<svg version="1.0" xmlns="http://www.w3.org/2000/svg"
 width="50.000000pt" height="40.000000pt" viewBox="0 0 334.000000 400.000000"
 preserveAspectRatio="xMidYMid meet">
<metadata>
Created by potrace 1.15, written by Peter Selinger 2001-2017
</metadata>
<g transform="translate(0.000000,400.000000) scale(0.100000,-0.100000)"
fill="#000000" stroke="none">
<path d="M1465 3993 c-11 -3 -24 -11 -28 -19 -4 -8 -14 -14 -22 -14 -8 0 -21
-10 -30 -22 -9 -14 -18 -19 -23 -13 -16 23 -55 35 -112 35 -33 0 -60 -4 -60
-10 0 -5 -5 -10 -11 -10 -7 0 -26 -16 -45 -35 -23 -25 -41 -35 -63 -35 -17 0
-31 5 -31 10 0 12 -307 14 -312 1 -5 -12 -88 -21 -88 -9 0 16 -47 52 -82 64
-10 4 -18 10 -18 15 0 5 -29 9 -65 9 -37 0 -65 -4 -65 -10 0 -5 -10 -10 -21
-10 -12 0 -32 -11 -45 -25 l-24 -26 -27 26 c-15 14 -33 25 -40 25 -6 0 -13 5
-15 11 -5 15 -141 16 -146 1 -2 -7 -8 -12 -14 -12 -5 0 -17 -8 -26 -17 -25
-24 -31 -173 -8 -192 9 -7 16 -20 16 -27 0 -8 6 -14 14 -14 27 0 26 -17 -5
-49 -26 -27 -31 -42 -36 -100 -4 -53 -2 -76 13 -107 19 -40 65 -94 81 -94 12
0 3 -174 -8 -178 -12 -5 -12 -222 -1 -222 5 0 12 -55 16 -122 4 -68 11 -124
16 -126 6 -2 10 -19 10 -38 0 -19 5 -34 10 -34 6 0 10 -5 10 -11 0 -13 -25
-39 -39 -39 -15 0 -61 -49 -61 -65 0 -8 -4 -15 -10 -15 -6 0 -10 -28 -10 -65
0 -36 4 -65 9 -65 15 0 19 -50 5 -65 -8 -7 -14 -18 -14 -24 0 -6 -4 -11 -9
-11 -5 0 -13 -10 -17 -22 -4 -13 -12 -26 -18 -30 -17 -11 -15 -360 2 -365 6
-3 12 -15 12 -28 0 -13 7 -30 15 -39 8 -8 15 -17 15 -21 0 -4 6 -13 14 -20 14
-15 10 -65 -5 -65 -5 0 -9 -29 -9 -65 0 -37 4 -65 10 -65 6 0 10 -7 10 -15 0
-16 46 -65 61 -65 14 0 39 -26 39 -39 0 -6 -4 -11 -10 -11 -5 0 -10 -15 -10
-34 0 -19 -4 -36 -10 -38 -5 -2 -12 -58 -16 -125 -4 -68 -11 -123 -16 -123
-11 0 -11 -217 1 -222 4 -2 11 -48 15 -104 6 -90 5 -102 -12 -122 -11 -12 -24
-22 -31 -22 -6 0 -11 -5 -11 -11 0 -7 -10 -20 -22 -31 -21 -18 -23 -29 -23
-111 0 -63 4 -92 13 -94 6 -3 12 -11 12 -19 0 -8 4 -14 9 -14 22 0 18 -32 -7
-57 -25 -26 -27 -32 -27 -118 0 -72 4 -95 17 -108 9 -9 21 -17 27 -17 6 0 11
-4 11 -10 0 -6 31 -10 73 -10 61 0 75 3 87 20 8 11 19 20 24 20 5 0 18 8 29
17 18 17 19 17 28 0 6 -9 19 -17 29 -17 11 0 20 -4 20 -10 0 -5 11 -10 25 -10
14 0 25 -4 25 -10 0 -5 18 -10 40 -10 22 0 40 5 40 10 0 6 11 10 25 10 14 0
25 5 25 10 0 6 6 10 14 10 19 0 86 66 86 85 0 11 11 15 40 15 22 0 40 -4 40
-10 0 -13 277 -13 285 0 3 6 22 10 41 10 27 0 43 -8 68 -35 19 -19 38 -35 45
-35 6 0 11 -4 11 -10 0 -6 27 -10 60 -10 33 0 60 4 60 10 0 6 7 10 15 10 8 0
15 5 15 10 0 17 35 11 47 -9 7 -11 26 -22 43 -26 16 -4 30 -11 30 -16 0 -5 6
-9 14 -9 8 0 16 -6 19 -12 5 -18 339 -18 345 0 2 6 12 12 23 12 10 0 19 4 19
9 0 5 13 12 28 16 15 3 34 15 42 25 15 21 40 27 40 10 0 -5 9 -10 20 -10 11 0
20 -4 20 -10 0 -5 25 -10 55 -10 30 0 55 5 55 10 0 6 7 10 15 10 9 0 31 16 49
35 27 27 42 35 70 35 20 0 36 -4 36 -10 0 -6 53 -10 140 -10 87 0 140 4 140
10 0 6 20 10 45 10 35 0 45 -4 45 -16 0 -21 63 -84 84 -84 9 0 16 -4 16 -10 0
-5 11 -10 25 -10 14 0 25 -4 25 -10 0 -5 18 -10 40 -10 22 0 40 5 40 10 0 6
11 10 25 10 14 0 25 5 25 10 0 6 6 10 14 10 8 0 22 8 31 17 16 16 18 16 27 0
5 -9 17 -17 26 -17 9 0 23 -9 30 -20 10 -17 23 -20 82 -20 40 0 70 4 70 10 0
6 9 10 20 10 13 0 22 9 26 25 3 14 10 25 15 25 5 0 9 34 9 75 0 43 -4 75 -10
75 -5 0 -10 7 -10 15 0 8 -11 25 -24 38 -23 23 -23 24 -5 38 11 8 22 31 26 51
3 21 9 38 14 38 5 0 9 23 9 50 0 28 -4 50 -10 50 -5 0 -10 11 -10 25 0 16 -17
41 -50 74 -41 41 -50 56 -50 86 0 19 5 35 10 35 6 0 10 28 10 64 0 36 5 68 10
71 13 8 13 215 0 215 -6 0 -10 32 -10 75 0 41 -4 75 -9 75 -4 0 -11 37 -15 83
-4 45 -11 83 -16 85 -24 9 0 44 37 56 12 4 25 16 28 27 4 10 11 19 16 19 5 0
9 7 9 15 0 8 5 15 10 15 6 0 10 28 10 65 0 37 -4 65 -10 65 -5 0 -10 9 -10 20
0 11 -5 20 -12 20 -6 0 -2 8 9 17 11 10 23 28 27 41 4 12 12 22 17 22 5 0 9
11 9 24 0 13 6 26 13 29 9 3 12 46 12 169 0 166 -6 197 -42 236 -7 7 -13 19
-13 26 0 6 -8 18 -19 25 -15 11 -16 17 -7 37 6 13 14 24 19 24 4 0 7 29 7 65
0 37 -4 65 -10 65 -5 0 -10 5 -10 11 0 10 -6 18 -37 51 -22 23 -42 38 -53 38
-13 0 -13 23 0 36 5 5 13 45 16 87 4 42 11 77 15 77 5 0 9 33 9 74 0 41 5 78
10 81 6 3 10 52 10 111 0 63 -4 104 -10 104 -6 0 -10 28 -10 65 0 37 -4 65
-10 65 -5 0 -10 11 -10 25 0 15 6 25 15 25 23 0 75 57 81 90 4 16 10 30 15 30
5 0 9 25 9 55 0 30 -4 55 -10 55 -5 0 -10 11 -10 25 0 13 -11 35 -25 49 -28
28 -32 46 -10 46 9 0 21 11 27 25 6 14 15 25 20 25 4 0 8 34 8 75 0 43 -4 75
-10 75 -5 0 -10 6 -10 13 0 8 -9 24 -20 37 -17 19 -29 22 -97 22 -48 0 -79 -4
-81 -11 -2 -6 -8 -11 -14 -11 -6 0 -22 -12 -35 -26 l-24 -26 -24 26 c-13 14
-33 26 -45 26 -11 0 -20 5 -20 10 0 14 -111 12 -143 -2 -15 -7 -27 -16 -27
-20 0 -5 -6 -8 -13 -8 -16 0 -57 -33 -57 -46 0 -5 -18 -8 -40 -6 -22 2 -40 8
-40 13 0 5 -72 9 -160 9 -100 0 -160 -4 -160 -10 0 -24 -53 -8 -86 25 -18 19
-40 35 -49 35 -8 0 -15 5 -15 10 0 6 -28 10 -65 10 -37 0 -65 -4 -65 -10 0 -5
-6 -10 -14 -10 -8 0 -16 -6 -19 -12 -3 -9 -11 -6 -24 10 -11 12 -25 22 -31 22
-6 0 -18 8 -28 18 -15 15 -42 17 -213 19 -108 1 -205 -1 -216 -4z m1325 -1637
l0 -1115 -27 15 c-16 7 -34 14 -40 14 -7 0 -13 5 -13 10 0 6 -7 10 -15 10 -8
0 -15 4 -15 9 0 5 -16 12 -35 15 -19 4 -35 11 -35 16 0 6 -7 10 -15 10 -8 0
-15 4 -15 9 0 5 -16 12 -35 15 -19 4 -35 11 -35 16 0 6 -7 10 -15 10 -8 0 -15
4 -15 9 0 5 -16 12 -35 15 -19 4 -35 10 -35 14 0 9 -47 30 -88 38 -17 4 -32
10 -32 15 0 5 -7 9 -15 9 -8 0 -15 4 -15 9 0 5 -15 13 -32 16 -18 4 -35 10
-38 14 -9 11 -68 41 -80 41 -18 0 -49 42 -50 67 0 12 -4 23 -10 25 -5 2 -11
46 -12 98 -3 93 -2 97 25 123 15 15 27 34 27 42 0 8 5 15 10 15 6 0 10 5 10
11 0 6 7 17 15 25 8 9 15 26 15 40 0 13 5 24 10 24 6 0 10 11 10 25 0 14 4 25
9 25 4 0 11 27 15 60 6 55 9 60 31 60 55 0 83 76 72 188 -3 31 -11 58 -17 60
-10 4 -19 12 -49 48 -11 13 -11 20 0 41 9 17 13 71 14 183 0 157 0 160 -25
184 -14 14 -30 31 -37 38 -21 23 -42 38 -52 38 -5 0 -11 6 -13 13 -4 9 -40 12
-136 13 l-131 1 -35 36 c-20 21 -42 37 -51 37 -8 0 -15 5 -15 10 0 6 -28 10
-65 10 -37 0 -65 -4 -65 -10 0 -5 -11 -10 -25 -10 -14 0 -25 -4 -25 -9 0 -5
-14 -12 -30 -16 -17 -4 -36 -15 -43 -26 -6 -10 -20 -19 -30 -19 -10 0 -20 -7
-23 -15 -4 -8 -14 -15 -24 -15 -10 0 -20 -7 -24 -15 -3 -8 -15 -15 -26 -15
-11 0 -20 -4 -20 -10 0 -5 -7 -10 -15 -10 -8 0 -15 -4 -15 -10 0 -5 -16 -12
-35 -16 -19 -3 -35 -10 -35 -15 0 -5 -7 -9 -15 -9 -8 0 -15 -4 -15 -10 0 -5
-16 -12 -35 -16 -19 -3 -35 -10 -35 -15 0 -5 -11 -9 -25 -9 -14 0 -25 -4 -25
-9 0 -5 -13 -12 -30 -16 -27 -6 -30 -11 -30 -44 0 -58 46 -97 120 -103 l35 -3
3 -65 c2 -35 8 -70 14 -77 7 -9 7 -13 -1 -13 -7 0 -24 -12 -39 -27 -25 -25
-27 -34 -30 -124 -4 -93 -3 -97 23 -123 14 -14 31 -26 36 -26 19 0 40 -30 46
-65 3 -19 10 -35 14 -35 5 0 9 -11 9 -25 0 -14 4 -25 9 -25 5 0 11 -15 15 -32
8 -40 28 -88 37 -88 4 0 10 -11 13 -25 4 -14 11 -25 16 -25 6 0 10 -5 10 -11
0 -6 7 -17 15 -25 12 -12 14 -30 8 -87 -3 -40 -10 -73 -15 -75 -4 -2 -8 -19
-8 -39 0 -34 -18 -63 -39 -63 -6 0 -11 -4 -11 -10 0 -5 -4 -10 -10 -10 -16 0
-90 -34 -90 -42 0 -4 -16 -10 -35 -14 -19 -3 -35 -10 -35 -15 0 -5 -11 -9 -25
-9 -14 0 -25 -4 -25 -9 0 -5 -13 -12 -30 -16 -16 -4 -30 -11 -30 -16 0 -5 -9
-9 -20 -9 -11 0 -20 -4 -20 -9 0 -5 -13 -12 -30 -16 -16 -4 -30 -11 -30 -16 0
-5 -11 -9 -25 -9 -14 0 -25 -4 -25 -9 0 -5 -16 -12 -35 -15 -19 -4 -35 -11
-35 -16 0 -6 -7 -10 -15 -10 -8 0 -15 -4 -15 -9 0 -5 -16 -12 -35 -15 -19 -4
-35 -11 -35 -16 0 -6 -7 -10 -15 -10 -8 0 -15 -4 -15 -10 0 -5 -11 -12 -25
-16 -14 -3 -25 -10 -25 -15 0 -5 -7 -9 -15 -9 -9 0 -26 -11 -39 -25 -13 -14
-26 -25 -30 -25 -3 0 -6 513 -6 1140 l0 1140 1125 0 1125 0 0 -1114z"/>
</g>
</svg>
